# xmcd
#
# Track frame offsets:
#	183
#	11213
#	23350
#	36898
#	48535
#	63945
#	76785
#	89008
#	99308
#	111573
#	124620
#	137210
#	148243
#	163088
#
# Disc length: 2339
#
# Revision: 4
# Processed by: cddbd v1.5.1PL0 Copyright (c) Steve Scherf et al.
# Submitted via: FreeRIP 2.92 
# Normalized: r3:DSETVAR1
#
DISCID=be09210e
DTITLE=Various Artist - Classic Country Vol.5
DYEAR=1900
DGENRE=Country
TTITLE0=Jim Reeves - He'll have to go
TTITLE1=Skeeter Davis - The end of the road
TTITLE2=Waylon Jennings - Rhiannon
TTITLE3=Don Gibson - Oh, lonesome me
TTITLE4=George Hamilton IV - Canadian Pacific
TTITLE5=Charley Pride - Crystal Chandeliers
TTITLE6=Dolly Parton - Jolene
TTITLE7=Waylon Jennings - Ruby, don't take your love to town
TTITLE8=Eddy Arnold - Make the world go away
TTITLE9=Hank Snow - I'm movin' on
TTITLE10=Bobby Bare - 500 miles away from home
TTITLE11=Floyd Cramer - Last date
TTITLE12=Lorne Green - Ringo
TTITLE13=Hand Snow - Spanish eyes
EXTD=
EXTT0=
EXTT1=
EXTT2=
EXTT3=
EXTT4=
EXTT5=
EXTT6=
EXTT7=
EXTT8=
EXTT9=
EXTT10=
EXTT11=
EXTT12=
EXTT13=
PLAYORDER=
